<svg xmlns="http://www.w3.org/2000/svg" width="87" height="143" viewBox="0 0 87 143">
    <path fill="#022169" fill-rule="evenodd" d="M-36.936 113.592l-.075-.113-.094-.14c.002-.016.043.008.068.011l.225.058c.003-.064-.086-.226-.135-.362-.08-.263-.373-.744-.632-1.248-.147-.264-.343-.572-.53-.89-.195-.32-.387-.657-.642-1.035-.482-.746-1.017-1.58-1.672-2.508-.619-.926-1.369-1.93-2.152-3.015a149.42 149.42 0 0 0-5.727-7.244c-2.188-2.657-4.723-5.435-7.464-8.371l-2.128-2.181-1.089-1.12-1.128-1.094-2.301-2.242-2.403-2.217c-1.61-1.53-3.318-2.943-5.035-4.454-.856-.767-1.753-1.441-2.64-2.18-.893-.717-1.782-1.484-2.7-2.182l-2.775-2.116-1.405-1.069-1.429-1.011-2.885-2.053c-.97-.672-1.958-1.29-2.944-1.948l-1.484-.978c-.495-.332-.992-.66-1.496-.95l-3.025-1.826-1.519-.923-1.535-.841-3.079-1.699-.771-.429-.777-.383-1.553-.769-3.107-1.551-6.227-2.764-6.18-2.388-6.065-2.021-5.874-1.632c-.96-.298-1.907-.462-2.841-.676l-2.764-.61c-.907-.19-1.803-.43-2.678-.574l-2.576-.416-2.47-.407-1.191-.2c-.393-.07-.78-.13-1.16-.16l-4.292-.452-1.928-.21-.905-.097-.859-.04-7.104-.348-3.613-.178c-16.37-.805-28.916-13.404-28.022-28.142.68-11.219 9.026-20.457 20.158-23.867 0 0 3.511-1.066 9.8-2.888l1.213-.35 1.29-.309 2.77-.655 6.287-1.457a24.73 24.73 0 0 1 1.726-.35l1.787-.321 3.747-.664 3.969-.686c1.359-.23 2.753-.365 4.182-.554l4.39-.533c1.495-.169 3.03-.389 4.58-.475 3.109-.226 6.347-.462 9.692-.66a998.3 998.3 0 0 1 10.293-.21c3.504.05 7.094.16 10.775.273 3.633.23 7.35.49 11.12.803l5.632.636 2.85.333 1.433.172 1.414.215 5.699.885 2.874.458 2.836.546 5.71 1.12c.961.181 1.9.395 2.838.615l2.823.655c1.879.446 3.785.87 5.652 1.35l5.567 1.497 2.785.76c.912.273 1.824.546 2.734.82l5.449 1.666c1.812.56 3.561 1.183 5.338 1.774 1.758.61 3.555 1.18 5.263 1.828C-13.61-5.09-10.16-3.85-6.883-2.494c1.65.668 3.3 1.324 4.916 1.997L2.79 1.562l2.346 1.023 2.283 1.053 4.49 2.084c5.845 2.828 11.342 5.61 16.31 8.369 4.996 2.723 9.5 5.397 13.495 7.854 1.992 1.248 3.86 2.409 5.586 3.555a208.323 208.323 0 0 1 4.767 3.193c.717.484 1.417.986 2.07 1.449l1.842 1.317c1.19.886 2.146 1.575 3.044 2.288l1.17.92 1.159 1 .399.347.141.102.115.083c28.725 20.697 33.374 58.44 10.383 84.3-22.99 25.86-64.914 30.046-93.638 9.348-6.327-4.56-11.486-9.944-15.438-15.848l-.25-.407z" opacity=".161"/>
</svg>
