<svg xmlns="http://www.w3.org/2000/svg" xmlns:xlink="http://www.w3.org/1999/xlink" width="117" height="138" viewBox="0 0 117 138">
    <defs>
        <path id="a" d="M309.582 184.105V0H0v184.105h309.582z"/>
    </defs>
    <g fill="none" fill-rule="evenodd" transform="rotate(-163 146.375 105.687)">
        <mask id="b" fill="#fff">
            <use xlink:href="#a"/>
        </mask>
        <path fill="#FFF" d="M137.72 32.786c.017.773.343 1.306.63 1.866.163.293.38.635.589.988.216.356.43.73.712 1.15.536.829 1.13 1.754 1.857 2.785.687 1.028 1.52 2.144 2.39 3.349 1.788 2.395 3.892 5.13 6.36 8.045 2.43 2.95 5.245 6.036 8.289 9.296l2.364 2.422 1.208 1.244 1.253 1.216 2.556 2.49 2.668 2.46c1.788 1.7 3.684 3.27 5.592 4.947.95.852 1.947 1.601 2.93 2.423.993.795 1.98 1.647 3 2.422l3.082 2.35 1.56 1.187 1.587 1.123 3.204 2.28c1.078.746 2.175 1.433 3.27 2.163l1.647 1.087c.55.368 1.102.732 1.662 1.055l3.36 2.028 1.686 1.025 1.705.934 3.419 1.886.857.476.862.426 1.725.854 3.45 1.723 6.915 3.069 6.864 2.653 6.735 2.244 6.524 1.813c1.066.33 2.117.512 3.155.75l3.07.678c1.007.21 2.001.477 2.973.636l2.86.463 2.744.452 1.323.221c.436.079.865.145 1.287.178l4.767.503c.745.08 1.46.158 2.142.233l1.005.108.953.043 7.89.388 4.012.197c18.18.894 32.112 14.887 31.12 31.254-.756 12.46-10.024 22.719-22.387 26.506 0 0-3.9 1.183-10.884 3.207l-1.347.388-1.43.344-3.078.728-6.982 1.618c-.625.153-1.265.276-1.916.388l-1.985.357-4.161.737-4.408.762c-1.51.254-3.057.406-4.645.616l-4.874.592c-1.661.186-3.365.43-5.088.527-3.452.25-7.047.513-10.762.733-3.69.094-7.505.174-11.431.233-3.89-.055-7.878-.179-11.966-.303a631.375 631.375 0 0 1-12.35-.892l-6.254-.707-3.166-.37-1.59-.19-1.57-.239-6.329-.983-3.193-.509-3.149-.606-6.34-1.244a71.976 71.976 0 0 1-3.152-.683l-3.136-.727c-2.086-.495-4.203-.967-6.276-1.499l-6.183-1.663-3.093-.843-3.035-.911c-2.024-.62-4.042-1.236-6.052-1.85-2.012-.623-3.955-1.314-5.928-1.971-1.952-.678-3.948-1.31-5.845-2.03-3.815-1.42-7.649-2.797-11.288-4.303-1.832-.742-3.664-1.47-5.46-2.219l-5.282-2.286-2.605-1.136-2.535-1.169-4.987-2.315c-6.491-3.14-12.596-6.23-18.112-9.294-5.548-3.025-10.55-5.994-14.987-8.723-2.212-1.386-4.286-2.675-6.204-3.948a231.347 231.347 0 0 1-5.294-3.546c-.796-.537-1.573-1.095-2.298-1.609-.729-.52-1.411-1.008-2.046-1.463-1.322-.983-2.383-1.748-3.38-2.54l-1.3-1.023-1.287-1.11c-.505-.43-.558-.468-.6-.498-32.028-23.079-37.19-64.995-11.658-93.715C41.756-3.73 88.315-8.379 120.214 14.608c7.026 5.063 12.755 11.043 17.144 17.6.278.451.305.494.361.578z" mask="url(#b)" opacity=".264"/>
    </g>
</svg>
